<svg width="120" height="40" viewBox="0 0 120 40" fill="none" xmlns="http://www.w3.org/2000/svg">
  <g fill="currentColor">
    <!-- M -->
    <path d="M8 28V12h3l4 12 4-12h3v16h-2V15.5L16 28h-2l-4-12.5V28H8z"/>
    <!-- A -->
    <path d="M32 28l-1-3h-6l-1 3h-2l5-16h2l5 16h-2zm-6-5h4l-2-6-2 6z"/>
    <!-- U -->
    <path d="M38 12v10c0 2.2 1.8 4 4 4s4-1.8 4-4V12h2v10c0 3.3-2.7 6-6 6s-6-2.7-6-6V12h2z"/>
    <!-- D -->
    <path d="M50 12h4c3.3 0 6 2.7 6 6s-2.7 6-6 6h-4V12zm4 10c2.2 0 4-1.8 4-4s-1.8-4-4-4h-2v8h2z"/>
    <!-- I -->
    <path d="M64 12h2v16h-2V12z"/>
    <!-- O -->
    <path d="M70 20c0-4.4 3.6-8 8-8s8 3.6 8 8-3.6 8-8 8-8-3.6-8-8zm8-6c-3.3 0-6 2.7-6 6s2.7 6 6 6 6-2.7 6-6-2.7-6-6-6z"/>
  </g>
  <!-- Audio wave decoration -->
  <g fill="currentColor" opacity="0.7">
    <rect x="90" y="18" width="1" height="4"/>
    <rect x="92" y="16" width="1" height="8"/>
    <rect x="94" y="14" width="1" height="12"/>
    <rect x="96" y="17" width="1" height="6"/>
    <rect x="98" y="15" width="1" height="10"/>
    <rect x="100" y="19" width="1" height="2"/>
    <rect x="102" y="16" width="1" height="8"/>
    <rect x="104" y="13" width="1" height="14"/>
  </g>
</svg>